<?xml version="1.0" encoding="UTF-8" standalone="no"?>
<svg
   viewBox="0 0 496 512"
   version="1.1"
   id="svg2"
   sodipodi:docname="Spotify_icon.svg"
   inkscape:version="1.3.2 (091e20e, 2023-11-25)"
   xmlns:inkscape="http://www.inkscape.org/namespaces/inkscape"
   xmlns:sodipodi="http://sodipodi.sourceforge.net/DTD/sodipodi-0.dtd"
   xmlns="http://www.w3.org/2000/svg"
   xmlns:svg="http://www.w3.org/2000/svg">
  <defs
     id="defs2" />
  <sodipodi:namedview
     id="namedview2"
     pagecolor="#ffffff"
     bordercolor="#000000"
     borderopacity="0.25"
     inkscape:showpageshadow="2"
     inkscape:pageopacity="0.0"
     inkscape:pagecheckerboard="0"
     inkscape:deskcolor="#d1d1d1"
     inkscape:zoom="1.5322581"
     inkscape:cx="248"
     inkscape:cy="256.15789"
     inkscape:window-width="1392"
     inkscape:window-height="1212"
     inkscape:window-x="673"
     inkscape:window-y="1276"
     inkscape:window-maximized="0"
     inkscape:current-layer="svg2" />
  <path
     id="path1"
     style="display:inline;fill:#808080;fill-opacity:1"
     d="M 248 8 C 111.10014 8 0 119.10014 0 256 C 0 392.89986 111.10014 504 248 504 C 384.89986 504 496 392.89986 496 256 C 496 119.10014 384.89986 8 248 8 z M 211.5 137.40039 C 284.49993 137.40039 361.00045 152.59925 416.90039 185.19922 C 424.70038 189.69921 429.80078 195.90079 429.80078 207.80078 C 429.80078 221.40077 418.7996 231.09961 406.59961 231.09961 C 401.39961 231.09961 398.19921 229.79922 393.69922 227.19922 C 322.49929 184.69926 195.2007 174.50002 112.80078 197.5 C 109.20078 198.5 104.70039 200.09961 99.900391 200.09961 C 86.700404 200.09961 76.599609 189.79999 76.599609 176.5 C 76.599609 162.90001 85.000009 155.19961 94 152.59961 C 129.19996 142.29962 168.60004 137.40039 211.5 137.40039 z M 206.69922 222.59961 C 271.59915 222.59961 334.29927 238.69964 383.69922 268.09961 C 391.79921 272.8996 395 279.10079 395 287.80078 C 394.9 298.60077 386.4996 307.30078 375.59961 307.30078 C 370.39961 307.30078 366.90078 304.99961 363.30078 303.09961 C 300.80084 266.09965 207.59914 251.19924 124.69922 273.69922 C 119.89922 274.99922 117.30078 276.30078 112.80078 276.30078 C 102.10079 276.30078 93.400391 267.60038 93.400391 256.90039 C 93.400391 246.2004 98.600401 239.09922 108.90039 236.19922 C 136.70036 228.39923 165.09926 222.59961 206.69922 222.59961 z M 209.35352 303.87695 C 260.14546 303.67969 309.57426 314.31253 354.19922 341 C 360.29921 344.9 363.90039 348.40001 363.90039 357.5 C 363.90039 366.59999 356.79921 372.90039 348.69922 372.90039 C 344.49922 372.90039 341.9 371.60078 338 369.30078 C 275.60006 331.70082 203.00071 330.1008 131.30078 344.80078 C 127.40079 345.80078 122.30039 347.40039 119.40039 347.40039 C 109.7004 347.40039 103.59961 339.6996 103.59961 331.59961 C 103.59961 321.29962 109.69923 316.40078 117.19922 314.80078 C 147.91169 308.01329 178.87835 303.99531 209.35352 303.87695 z " />
</svg>
